{"title":"Breaking Bad S05E13 480p HDTV x264 AAC E-Subs [GWC].mp4","uid":8897340,"size":190448536,"categoryP":"video","categoryS":"tv_shows","magnet":"?xt=urn:btih:9ee8ab9b41dca2dfbcf1810d940e752c47306a0a&amp;dn=Breaking+Bad+S05E13+480p+HDTV+x264+AAC+E-Subs+%5BGWC%5D.mp4&amp;tr=udp%3A%2F%2Ftracker.openbittorrent.com%3A80&amp;tr=udp%3A%2F%2Fopen.demonii.com%3A1337&amp;tr=udp%3A%2F%2Ftracker.coppersurfer.tk%3A6969&amp;tr=udp%3A%2F%2Fexodus.desync.com%3A6969","seeders":4,"leechers":0,"uploader":"canc232","files":1,"time":1378732051,"description":"Breaking Bad S05E13 480p HDTV x264 AAC E-Subs [GWC]\nEpisode Title : To'hajiilee\n\nSCREENS :\n &lt;a href=&quot;\nhttp://s20.postimg.org/pg6875ipp/Breaking_Bad_S05_E13_480p_HDTV_x264_AAC_E_Subs_G.jpg&quot; rel=&quot;nofollow&quot; target=&quot;_NEW&quot;&gt;\nhttp://s20.postimg.org/pg6875ipp/Breaking_Bad_S05_E13_480p_HDTV_x264_AAC_E_Subs_G.jpg&lt;/a&gt; &lt;a href=&quot;\nhttp://s20.postimg.org/fucnqurjx/Breaking_Bad_S05_E13_480p_HDTV_x264_AAC_E_Subs_G.jpg&quot; rel=&quot;nofollow&quot; target=&quot;_NEW&quot;&gt;\nhttp://s20.postimg.org/fucnqurjx/Breaking_Bad_S05_E13_480p_HDTV_x264_AAC_E_Subs_G.jpg&lt;/a&gt; &lt;a href=&quot;\nhttp://s20.postimg.org/wgu7zxkhp/Breaking_Bad_S05_E13_480p_HDTV_x264_AAC_E_Subs_G.jpg&quot; rel=&quot;nofollow&quot; target=&quot;_NEW&quot;&gt;\nhttp://s20.postimg.org/wgu7zxkhp/Breaking_Bad_S05_E13_480p_HDTV_x264_AAC_E_Subs_G.jpg&lt;/a&gt; \n\n\n\nMEDIA INFO :\n\nGeneral \nFormat : MPEG-4 \nFormat profile : Base Media \nCodec ID : isom \nFile size : 182 MiB \nDuration : 46mn 6s \nOverall bit rate mode : Variable \nOverall bit rate : 551 Kbps \n\nVideo \nID : 1 \nFormat : AVC \nFormat profile : &lt;a class=&quot;__cf_email__&quot; href=&quot;/cdn-cgi/l/email-protection&quot; data-cfemail=&quot;d49cbdb3bc9498e7fae4&quot;&gt;[email&amp;#160;protected]&lt;/a&gt;&lt;script cf-hash='f9e31' type=&quot;text/javascript&quot;&gt;\n/* &lt;![CDATA[ */!function(){try{var t=&quot;currentScript&quot;in document?document.currentScript:function(){for(var t=document.getElementsByTagName(&quot;script&quot;),e=t.length;e--;)if(t[e].getAttribute(&quot;cf-hash&quot;))return t[e]}();if(t&amp;&amp;t.previousSibling){var e,r,n,i,c=t.previousSibling,a=c.getAttribute(&quot;data-cfemail&quot;);if(a){for(e=&quot;&quot;,r=parseInt(a.substr(0,2),16),n=2;a.length-n;n+=2)i=parseInt(a.substr(n,2),16)^r,e+=String.fromCharCode(i);e=document.createTextNode(e),c.parentNode.replaceChild(e,c)}}}catch(u){}}();/* ]]&gt; */&lt;/script&gt; \nFormat settings, CABAC : Yes \nFormat settings, ReFrames : 5 frames \nDuration : 46mn 3s \nBit rate : 493 Kbps \nMaximum bit rate : 1 293 Kbps \nWidth : 720 pixels \nHeight : 404 pixels \nDisplay aspect ratio : 16:9 \nFrame rate : 23.976 fps \nTitle : Breaking Bad S05E13 480p HDTV x264 AAC E-Subs [GWC] \nWriting library : x264 core \nLanguage : English \n\nAudio \nID : 2 \nFormat : AAC \nFormat profile : HE-AAC / LC \nCodec ID : 40 \nDuration : 46mn 3s \nBit rate mode : Variable \nChannel(s) : 2 channels \nChannel positions : Front: L R \nSampling rate : 48.0 KHz / 24.0 KHz \nStream size : 17.8 MiB (10%) \nTitle : Breaking Bad S05E13 480p HDTV x264 AAC E-Subs [GWC] \nLanguage : English \n\nText \nID : 3 \nFormat : Timed Text \nCodec ID : tx3g \nDuration : 46mn 6s \nBit rate mode : Variable \nBit rate : 77 bps \nStream size : 25.9 KiB (0%) \nTitle : English Subtitle by n17t01 \nLanguage : English","torrent":{"xt":"urn:btih:9ee8ab9b41dca2dfbcf1810d940e752c47306a0a","amp;dn":"Breaking+Bad+S05E13+480p+HDTV+x264+AAC+E-Subs+%5BGWC%5D.mp4","amp;tr":["udp%3A%2F%2Ftracker.openbittorrent.com%3A80","udp%3A%2F%2Fopen.demonii.com%3A1337","udp%3A%2F%2Ftracker.coppersurfer.tk%3A6969","udp%3A%2F%2Fexodus.desync.com%3A6969"],"infoHash":"9ee8ab9b41dca2dfbcf1810d940e752c47306a0a","infoHashBuffer":{"type":"Buffer","data":[158,232,171,155,65,220,162,223,188,241,129,13,148,14,117,44,71,48,106,10]},"announce":[],"urlList":[]}}